# xmcd CD database file
#
# Track frame offsets:
#	150
#	18242
#	35517
#	54455
#	63573
#	76469
#	87523
#	119105
#	149210
#	161602
#	179560
#	196760
#	217477
#	233950
#	240590
#	257451
#	273736
#	305058
#	321310
#
# Disc length: 4599 seconds
#
# Revision: 0
# Processed by: cddbd v1.5.1PL2 Copyright (c) Steve Scherf et al.
# Submitted via: CDex 1.51
#
DISCID=2c11f513
DTITLE=Mark - Larixtape #4
DYEAR=2006
DGENRE=Blues
TTITLE0=Moby - Porcelain
TTITLE1=The Crystal Method - Vice
TTITLE2=PFN - Flow - Dj James Lavelle
TTITLE3=Dj Shadow - Mongrel...
TTITLE4=Dj Shadow - ...Meets His Maker
TTITLE5=ILS - Next Level
TTITLE6=Sneaker Pimps - 6 Underground - Dave Seaman
TTITLE7=Dj Shadow - Building Steam
TTITLE8=Beastie Boys - Lighten Up
TTITLE9=Beck - Hollywood Freaks
TTITLE10=Beck - Hot Wax
TTITLE11=Santana - Corazon Espinado
TTITLE12=ZZ Top - If I Could Only Flag Her Down
TTITLE13=Hop Wilson Chicken Stuff
TTITLE14=John Littlejohn - Catfish Blues
TTITLE15=Eric Clapton - Blues Leave Me Alone
TTITLE16=Eric Clapton - Driftin' Blues
TTITLE17=Eric Clapton - Terraplane Blues
TTITLE18=John Lee Hooker - It Serves You Right To Suffer
EXTD=YEAR: 2006
EXTT0=
EXTT1=
EXTT2=
EXTT3=
EXTT4=
EXTT5=
EXTT6=
EXTT7=
EXTT8=
EXTT9=
EXTT10=
EXTT11=
EXTT12=
EXTT13=
EXTT14=
EXTT15=
EXTT16=
EXTT17=
EXTT18=
PLAYORDER=
